<svg version="1.1" viewBox="0.0 0.0 1001.6876640419947 337.79265091863516" fill="none" stroke="none" stroke-linecap="square" stroke-miterlimit="10" xmlns:xlink="http://www.w3.org/1999/xlink" xmlns="http://www.w3.org/2000/svg"><clipPath id="p.0"><path d="m0 0l1001.6877 0l0 337.79266l-1001.6877 0l0 -337.79266z" clip-rule="nonzero"/></clipPath><g clip-path="url(#p.0)"><path fill="#000000" fill-opacity="0.0" d="m0 0l1001.6877 0l0 337.79266l-1001.6877 0z" fill-rule="evenodd"/><g filter="url(#shadowFilter-p.1)"><use xlink:href="#p.1" transform="matrix(1.0 0.0 0.0 1.0 11.313708528133201 11.313708528133201)"/></g><defs><filter id="shadowFilter-p.1" filterUnits="userSpaceOnUse"><feGaussianBlur in="SourceAlpha" stdDeviation="0.0" result="blur"/><feComponentTransfer in="blur" color-interpolation-filters="sRGB"><feFuncR type="linear" slope="0" intercept="0.0"/><feFuncG type="linear" slope="0" intercept="0.0"/><feFuncB type="linear" slope="0" intercept="0.0"/><feFuncA type="linear" slope="1.0" intercept="0"/></feComponentTransfer></filter></defs><g id="p.1"><path fill="#ffffff" d="m143.84557 84.52357l34.58159 106.526115l-71.42984 0l34.643387 -106.526115zm-39.435455 -64.31884l-97.20272 281.46582l63.81488 0l20.876167 -64.19284l101.60065 0l20.838928 64.19284l63.81488 0l-97.07674 -281.46582z" fill-rule="evenodd"/><path fill="#ffffff" d="m311.91373 20.204725l0 281.46582l180.23135 0l0 -49.073822l-120.700195 0l0 -232.39198zm173.88083 0l0 49.07383l86.178406 0l0 232.39197l58.838196 0l0 -232.39197l86.17847 0l0 -49.07383z" fill-rule="evenodd"/><path fill="#ffffff" d="m854.8368 68.837585c11.465271 0 20.977661 1.6798935 28.53717 5.039673c7.5595093 3.3177872 13.187195 8.189468 16.882935 14.615051c3.737732 6.4255905 5.6066284 14.300079 5.6066284 23.623474c0 9.281395 -1.8688965 17.029892 -5.6066284 23.245499c-3.6957397 6.2156067 -9.302368 10.8983 -16.819946 14.048096c-7.517517 3.107788 -16.945862 4.6616974 -28.285156 4.6616974l-40.44336 0l0 -85.23349zm-99.659546 -48.63286l0 281.46582l59.53119 0l0 -99.78555l43.457703 0l53.304016 99.78555l65.70477 0l-59.743042 -109.32272l0 0c0.87872314 -0.37939453 1.7472534 -0.7700958 2.605713 -1.1721344c15.286987 -7.1395264 26.96228 -17.428864 35.025757 -30.867996c8.063477 -13.439133 12.095215 -29.503098 12.095215 -48.191895c0 -18.60479 -3.96875 -34.794746 -11.90625 -48.56986c-7.9375 -13.775108 -19.444702 -24.442421 -34.52173 -32.00193c-15.077087 -7.559513 -33.240906 -11.339268 -54.491516 -11.339268z" fill-rule="evenodd"/><path stroke="#000000" stroke-width="8.0" stroke-linejoin="round" stroke-linecap="butt" d="m143.84557 84.52357l34.58159 106.526115l-71.42984 0l34.643387 -106.526115zm-39.435455 -64.31884l-97.20272 281.46582l63.81488 0l20.876167 -64.19284l101.60065 0l20.838928 64.19284l63.81488 0l-97.07674 -281.46582z" fill-rule="evenodd"/><path stroke="#000000" stroke-width="8.0" stroke-linejoin="round" stroke-linecap="butt" d="m311.91373 20.204725l0 281.46582l180.23135 0l0 -49.073822l-120.700195 0l0 -232.39198zm173.88083 0l0 49.07383l86.178406 0l0 232.39197l58.838196 0l0 -232.39197l86.17847 0l0 -49.07383z" fill-rule="evenodd"/><path stroke="#000000" stroke-width="8.0" stroke-linejoin="round" stroke-linecap="butt" d="m854.8368 68.837585c11.465271 0 20.977661 1.6798935 28.53717 5.039673c7.5595093 3.3177872 13.187195 8.189468 16.882935 14.615051c3.737732 6.4255905 5.6066284 14.300079 5.6066284 23.623474c0 9.281395 -1.8688965 17.029892 -5.6066284 23.245499c-3.6957397 6.2156067 -9.302368 10.8983 -16.819946 14.048096c-7.517517 3.107788 -16.945862 4.6616974 -28.285156 4.6616974l-40.44336 0l0 -85.23349zm-99.659546 -48.63286l0 281.46582l59.53119 0l0 -99.78555l43.457703 0l53.304016 99.78555l65.70477 0l-59.743042 -109.32272l0 0c0.87872314 -0.37939453 1.7472534 -0.7700958 2.605713 -1.1721344c15.286987 -7.1395264 26.96228 -17.428864 35.025757 -30.867996c8.063477 -13.439133 12.095215 -29.503098 12.095215 -48.191895c0 -18.60479 -3.96875 -34.794746 -11.90625 -48.56986c-7.9375 -13.775108 -19.444702 -24.442421 -34.52173 -32.00193c-15.077087 -7.559513 -33.240906 -11.339268 -54.491516 -11.339268z" fill-rule="evenodd"/></g></g></svg>