<svg version="1.1" viewBox="0.0 0.0 992.4645669291339 347.6719160104987" fill="none" stroke="none" stroke-linecap="square" stroke-miterlimit="10" xmlns:xlink="http://www.w3.org/1999/xlink" xmlns="http://www.w3.org/2000/svg"><clipPath id="p.0"><path d="m0 0l992.46454 0l0 347.6719l-992.46454 0l0 -347.6719z" clip-rule="nonzero"/></clipPath><g clip-path="url(#p.0)"><path fill="#000000" fill-opacity="0.0" d="m0 0l992.46454 0l0 347.6719l-992.46454 0z" fill-rule="evenodd"/><g filter="url(#shadowFilter-p.1)"><use xlink:href="#p.1" transform="matrix(1.0 0.0 0.0 1.0 19.79898960383859 19.79898960383858)"/></g><defs><filter id="shadowFilter-p.1" filterUnits="userSpaceOnUse"><feGaussianBlur in="SourceAlpha" stdDeviation="0.0" result="blur"/><feComponentTransfer in="blur" color-interpolation-filters="sRGB"><feFuncR type="linear" slope="0" intercept="0.0"/><feFuncG type="linear" slope="0" intercept="0.0"/><feFuncB type="linear" slope="0" intercept="0.0"/><feFuncA type="linear" slope="1.0" intercept="0"/></feComponentTransfer></filter></defs><g id="p.1"><path fill="#ffffff" d="m157.67378 103.163l31.999954 98.575935l-66.09735 0l32.05713 -98.575935zm-36.491455 -59.518642l-89.946175 260.45966l59.050858 0l19.317688 -59.402054l94.015785 0l19.283218 59.402054l59.050858 0l-89.82959 -260.45966z" fill-rule="evenodd"/><path fill="#ffffff" d="m313.19504 43.64436l0 260.45966l166.7764 0l0 -45.411377l-111.68948 0l0 -215.04826zm160.89996 0l0 45.41138l79.7449 0l0 215.04826l54.44568 0l0 -215.04826l79.744934 0l0 -45.41138z" fill-rule="evenodd"/><path fill="#ffffff" d="m815.5869 88.64768c10.609314 0 19.41156 1.5545197 26.406738 4.663559c6.995178 3.0701752 12.202698 7.5782776 15.622559 13.524315c3.4587402 5.9460297 5.1880493 13.2328415 5.1880493 21.860413c0 8.588715 -1.7293091 15.758942 -5.1880493 21.510666c-3.4198608 5.7517242 -8.607971 10.084946 -15.56427 12.999664c-6.956299 2.8758545 -15.680786 4.3137817 -26.173584 4.3137817l-37.424133 0l0 -78.8724zm-92.219604 -45.003323l0 260.45966l55.086914 0l0 -92.338425l40.21344 0l49.324707 92.338425l60.79962 0l-55.28296 -101.16383l0 0c0.81311035 -0.35107422 1.6168213 -0.71261597 2.4111938 -1.0846405c14.145752 -6.6067047 24.949402 -16.128128 32.41095 -28.564285c7.461487 -12.436157 11.192261 -27.301239 11.192261 -44.595276c0 -17.216286 -3.6724854 -32.19796 -11.017395 -44.945023c-7.3449097 -12.747055 -17.993103 -22.618252 -31.94458 -29.613586c-13.951477 -6.9953346 -30.759338 -10.493 -50.423523 -10.493z" fill-rule="evenodd"/><path stroke="#000000" stroke-width="12.0" stroke-linejoin="round" stroke-linecap="butt" d="m157.67378 103.163l31.999954 98.575935l-66.09735 0l32.05713 -98.575935zm-36.491455 -59.518642l-89.946175 260.45966l59.050858 0l19.317688 -59.402054l94.015785 0l19.283218 59.402054l59.050858 0l-89.82959 -260.45966z" fill-rule="evenodd"/><path stroke="#000000" stroke-width="12.0" stroke-linejoin="round" stroke-linecap="butt" d="m313.19504 43.64436l0 260.45966l166.7764 0l0 -45.411377l-111.68948 0l0 -215.04826zm160.89996 0l0 45.41138l79.7449 0l0 215.04826l54.44568 0l0 -215.04826l79.744934 0l0 -45.41138z" fill-rule="evenodd"/><path stroke="#000000" stroke-width="12.0" stroke-linejoin="round" stroke-linecap="butt" d="m815.5869 88.64768c10.609314 0 19.41156 1.5545197 26.406738 4.663559c6.995178 3.0701752 12.202698 7.5782776 15.622559 13.524315c3.4587402 5.9460297 5.1880493 13.2328415 5.1880493 21.860413c0 8.588715 -1.7293091 15.758942 -5.1880493 21.510666c-3.4198608 5.7517242 -8.607971 10.084946 -15.56427 12.999664c-6.956299 2.8758545 -15.680786 4.3137817 -26.173584 4.3137817l-37.424133 0l0 -78.8724zm-92.219604 -45.003323l0 260.45966l55.086914 0l0 -92.338425l40.21344 0l49.324707 92.338425l60.79962 0l-55.28296 -101.16383l0 0c0.81311035 -0.35107422 1.6168213 -0.71261597 2.4111938 -1.0846405c14.145752 -6.6067047 24.949402 -16.128128 32.41095 -28.564285c7.461487 -12.436157 11.192261 -27.301239 11.192261 -44.595276c0 -17.216286 -3.6724854 -32.19796 -11.017395 -44.945023c-7.3449097 -12.747055 -17.993103 -22.618252 -31.94458 -29.613586c-13.951477 -6.9953346 -30.759338 -10.493 -50.423523 -10.493z" fill-rule="evenodd"/></g></g></svg>